<svg id="Layer_1" data-name="Layer 1" xmlns="http://www.w3.org/2000/svg" viewBox="0 0 1437 274"><defs><style>.cls-1{fill:#ae0055;}.cls-2{fill:#999;}</style></defs><title>Logo SecurIT</title><path class="cls-1" d="M1088.5,0h79q0,134.49,0,269-39.49.06-79,0Q1088.45,134.5,1088.5,0Z" transform="translate(-0.5)"/><path class="cls-1" d="M1197.5,0h240V51q-41,0-82,0-.09,107.49,0,215-38,.09-76,0-.09-107.49,0-215c-27.33,0-54.65,0-82,0C1197.51,34,1197.45,17,1197.5,0Z" transform="translate(-0.5)"/><path class="cls-2" d="M83.37,10.82c28.11-11.57,59.55-11.14,89-5.68C192.48,9,211.89,17.58,227.25,31.26a78.26,78.26,0,0,1,22.8,37.47c-21.77,4-43.34,9.12-65.22,12.44-8.42,2.11-12.56-7.14-18.45-11.07-11.34-11.16-29-10.82-43.3-6.61-5.72,2.4-12.13,5.19-15.19,10.93s1.14,12.11,5.53,15.64c20.85,13.6,47,13.35,69.15,23.85,27.79,11.45,53.77,35.79,55.54,67.41C238,202.86,231.53,225,216.53,241c-19,20.31-46.67,29.17-73.5,33H101c-21.81-3.05-44-8.42-62.43-21-17.28-11.29-31.15-28-38-47.54v-4.26c23.78-5.26,47.2-12.28,71.24-16.27,11,13.1,24.52,26,42.14,28.61,14.16,1.15,30.42-.47,40.89-11.24,5.8-4.85,3.68-13.85-.59-19-8.76-9.51-21.3-14.35-33.61-17.3-25.29-5.89-50.9-14.89-70.36-32.73-9.75-9.66-18.55-21.7-20.12-35.73C28,78,32,57.24,43.59,41.07,53,26.88,67.77,17.11,83.37,10.82Z" transform="translate(-0.5)"/><path class="cls-2" d="M321.46,80.94c15.34-8.17,32.89-10.54,50-10.83,20.12,0,41.17,1.63,59,11.9,19.55,10.29,32.31,30.29,37.37,51.38,5.36,16.69,3.59,34.4,2.92,51.61-44.63.05-89.26-.05-133.89,0-.06,11-.84,23.13,6.1,32.49,6.59,9.28,19.28,10.61,29.7,8.77C386,223,393,210.06,398.92,198.84c21.37,4.17,42.59,9,63.91,13.47a114.32,114.32,0,0,1-25.55,34.47c-15.81,15.12-36.92,23.53-58.23,27.22h-28c-18.6-3.13-37.62-7.45-53.52-18.07-32.66-22.3-45-67.48-32.52-104.29C275,122.72,293.56,95.08,321.46,80.94Zm29.89,41.92c-7.17,6.23-8.43,16.18-9.42,25.08,18.92.13,37.84.08,56.77,0,.12-4.77.38-9.55.14-14.31-.93-8.39-8-15.41-16.29-16.73C372.24,115.13,359.31,114.73,351.35,122.86Z" transform="translate(-0.5)"/><path class="cls-2" d="M561.89,74.66C584.07,68.9,608,68,630.18,74.33a68.84,68.84,0,0,1,35.13,24.79c9.64,12.2,14.43,27.45,16.68,42.65-21.78,3.47-43.6,6.68-65.49,9.31-2.32-7.52-2.32-16.84-8.53-22.56-6.34-6.8-17-8.08-25.21-4.27-10.89,6.92-14.91,20-18.29,31.71-4,16.93-7.11,34.92-1.9,52,1.4,5.72,5.81,10.35,10.9,13.08,8.82,3.26,20.17,2,26.6-5.45,6.5-6.22,9.89-14.65,13.68-22.61,19.17,4.5,38.27,9.32,57.34,14.25-5,17-14.21,33-27.91,44.43-14.09,12.79-32.75,18.91-51.12,22.34H564c-19.43-3.31-39.51-9.44-53.84-23.69-14.95-13.94-22.58-33.91-25.31-53.79-3.4-33.48,9.55-66.93,30.59-92.57C527.7,90.05,543.71,79,561.89,74.66Z" transform="translate(-0.5)"/><path class="cls-2" d="M1035.52,76c10.48-6.58,23.33-6,35.23-6.16-2.73,22.73-7.43,45.17-10.47,67.85-13.87.27-29.13-.35-41,8.1C1001.74,157.18,996.64,179,995,198.45c-3.09,23.19-6.78,46.3-9.71,69.51q-40.09.1-80.18,0c11.51-63.42,23.88-126.69,36.2-190q32.71,0,65.46.06c-1.08,13.49-3.54,26.81-5.22,40.22C1009.12,101.75,1018.72,84.6,1035.52,76Z" transform="translate(-0.5)"/><path class="cls-2" d="M831.05,76.29c23.86-.51,47.73-.34,71.6-.22-10.41,63.68-22.35,127.12-32.47,190.85-22.24-.24-44.45,1-66.68,1.14.43-7.7.86-15.4,1.1-23.1a65,65,0,0,1-39.67,29H727c-9-2.68-18.06-7-23.4-15.08C691,243,692.5,221.33,695.1,202.47c7.23-41.86,15.18-83.59,22.61-125.41,24.38-.11,48.76-.15,73.15,0-7.24,32.14-15.2,64.22-19.27,97-1.21,12.94-3,26.13.06,39,.19,7,7.7,11.19,14,11.41s11.88-3.92,15.42-8.8c8.54-10.74,10.33-24.83,13.14-37.81C819.51,143.93,825.86,110.21,831.05,76.29Z" transform="translate(-0.5)"/></svg>